<svg xmlns="http://www.w3.org/2000/svg" id="Layer_2" data-name="Layer 2" viewBox="0 0 479.66 56.53"><defs><style>      .cls-1 {        fill: #008a9b;      }    </style></defs><g id="Capa_1" data-name="Capa 1"><path class="cls-1" d="M37.39,56.53l1.23-14.53h-1.56c-.66,2.72-1.29,4.84-1.88,6.37s-1.42,2.84-2.49,3.95c-1.07,1.11-2.16,1.8-3.27,2.09-1.11.29-2.62.43-4.55.43h-9.99V13.73h7.4v-1.69H0v1.69h7v41.11H0v1.69h37.39ZM53.95,25.59l-9.11-7.38,5.04-4.38,9.11,7.38-5.04,4.38ZM51.92,29.36l11.48-9.98-11.5-9.31-11.48,9.95c-.77,1.75-1.17,3.69-1.17,5.81,0,3.98,1.31,7.29,3.93,9.92,2.62,2.63,5.7,3.95,9.25,3.95,2.49,0,4.74-.78,6.77-2.35,2.03-1.56,3.4-3.98,4.13-7.26h-1.42c-1.65,5.41-4.81,8.12-9.48,8.12-2.27,0-3.84-.75-4.72-2.26-.83-1.42-1.19-5.07-1.11-10.9l5.32,4.3ZM62.11,23.92h1.22-1.22ZM86.07,38.12h15.56v-1.69h-3.18l-11.35-13.47,8.29-9.22h4.94v-1.69h-12.01v1.69h5.08l-7.33,8.06-6.67-8.06h4.41v-1.69h-16.16v1.69h3.75l10.58,12.71-9.09,9.99h-5.04v1.69h12.24v-1.69h-5.24l8.1-8.89,7.47,8.89h-4.35v1.69ZM115.46,6.17c.71-.68,1.06-1.55,1.06-2.59s-.36-1.84-1.08-2.54c-.72-.7-1.57-1.04-2.54-1.04s-1.82.35-2.54,1.06c-.72.71-1.08,1.55-1.08,2.52s.35,1.88,1.06,2.57c.71.7,1.56,1.04,2.55,1.04s1.85-.34,2.56-1.03M104.88,38.61h15.43v-1.69h-4.35V12.04c-1.99.33-4.11.5-6.37.5h-4.71v1.69h4.64v22.69h-4.64v1.69ZM153.36,56.53h20.93v-1.69h-6.6V13.73h6.6v-1.69h-15.56l-9.59,31.45h-.13l-9.52-31.45h-15.96v1.69h6.67v41.11h-6.67v1.69h15.16v-1.69h-6.8V12.97h.13l13.24,43.56h1.53l13.24-43.56h.13v41.87h-6.8v1.69ZM209.25,38.12h4.48v-1.69h-4.48V12.04h-11.78v1.69h5.31v9.99c0,4.38-.86,7.66-2.59,9.84-1.73,2.18-3.61,3.27-5.64,3.27-1.37,0-2.22-.52-2.55-1.58-.33-1.05-.5-2.95-.5-5.69V12.04h-11.28v1.69h4.81v14.67c0,4.16.75,6.88,2.24,8.18,1.49,1.29,3.47,1.94,5.92,1.94,4.27,0,7.4-2.06,9.39-6.17h.13v6.17c.91-.26,3.09-.4,6.54-.4M234.93,20h1.36v-7.43h-1.03c-.46.86-.92,1.53-1.36,1.99-1.73-1.68-3.86-2.52-6.4-2.52-2.41,0-4.45.77-6.12,2.31-1.67,1.54-2.51,3.45-2.51,5.72,0,4.62,3.11,7.39,9.32,8.3,3.65.53,5.89,1.11,6.72,1.73.83.62,1.25,1.54,1.25,2.75,0,1.46-.7,2.73-2.09,3.82-1.39,1.08-2.94,1.63-4.65,1.63-4.49,0-7.69-3.13-9.59-9.39h-1.16v9.79h1.16l2.32-1.99c2.34,2.06,4.77,3.08,7.26,3.08s4.67-.86,6.39-2.59c1.71-1.72,2.57-3.88,2.57-6.47,0-5.2-3.31-8.2-9.92-9.02-3.01-.4-4.92-.88-5.72-1.44-.81-.56-1.21-1.33-1.21-2.31,0-1.15.57-2.17,1.71-3.07,1.14-.9,2.56-1.34,4.26-1.34,3.94,0,6.41,2.16,7.43,6.47"></path><g><path class="cls-1" d="M343.46,37.79h-1.54v1.55h1.54v-1.55ZM339.43,28.29h-1.36v11.05h1.36v-11.05ZM331.08,33.03c.45-.51,1.01-.76,1.69-.76s1.23.26,1.68.76c.45.51.67,1.26.67,2.25,0,1.05-.22,1.83-.67,2.34-.45.51-1.01.77-1.68.77s-1.24-.26-1.69-.77-.67-1.28-.67-2.3.22-1.79.67-2.3M330.05,38.44c.69.72,1.6,1.08,2.72,1.08.7,0,1.34-.16,1.93-.49.59-.33,1.04-.79,1.35-1.38.31-.59.46-1.4.46-2.43,0-1.27-.35-2.27-1.05-2.99-.7-.72-1.6-1.08-2.7-1.08-.99,0-1.83.3-2.52.89-.82.71-1.24,1.81-1.24,3.29,0,1.35.35,2.39,1.04,3.1M322.9,30.15c0-.24.05-.42.16-.54.11-.12.24-.18.41-.18.15,0,.4.09.74.27.52.28.93.42,1.25.42.42,0,.77-.14,1.04-.43.27-.29.42-.71.43-1.29h-.98c-.03.26-.09.44-.18.52-.08.09-.21.13-.37.13-.18,0-.41-.08-.71-.23-.54-.27-.96-.41-1.27-.41-.45,0-.81.15-1.1.47-.29.31-.43.73-.43,1.25h1ZM322.3,39.33v-4.37c0-1.02.21-1.72.63-2.09.42-.37.92-.55,1.5-.55.36,0,.68.08.95.25.27.16.46.38.56.65.11.27.16.69.16,1.24v4.87h1.36v-4.92c0-.63-.02-1.07-.07-1.32-.08-.39-.22-.72-.42-1-.2-.28-.5-.51-.91-.68-.4-.17-.85-.26-1.33-.26-1.11,0-1.96.44-2.55,1.32v-1.14h-1.22v8h1.36ZM317.47,35.81c0,.6-.07,1.05-.22,1.36-.19.4-.49.71-.9.94-.41.23-.87.34-1.39.34s-.93-.12-1.2-.36-.41-.54-.41-.9c0-.24.06-.45.19-.64.12-.19.3-.34.53-.44.23-.1.62-.19,1.18-.27.98-.14,1.72-.31,2.21-.51v.5ZM317.85,39.33h1.42c-.17-.31-.29-.63-.34-.96-.06-.33-.09-1.13-.09-2.39v-1.81c0-.6-.02-1.02-.07-1.25-.08-.37-.22-.68-.42-.92-.2-.24-.52-.45-.94-.61-.43-.16-.98-.24-1.67-.24s-1.29.09-1.82.28c-.52.19-.92.46-1.2.81-.28.35-.47.81-.6,1.38l1.33.18c.15-.57.37-.96.68-1.19.3-.22.78-.34,1.41-.34.68,0,1.2.15,1.54.46.26.23.38.61.38,1.17,0,.05,0,.17,0,.35-.52.18-1.32.34-2.42.47-.54.07-.94.13-1.21.2-.36.1-.69.25-.98.44-.29.2-.52.46-.7.78-.18.32-.27.68-.27,1.07,0,.67.24,1.22.71,1.65.47.43,1.15.64,2.03.64.53,0,1.03-.09,1.5-.26.46-.18.95-.48,1.45-.9.04.38.13.71.27.99M305.67,33.02c.44-.54.96-.81,1.53-.81s1.08.25,1.5.76c.42.51.63,1.27.63,2.29,0,1.07-.22,1.86-.64,2.37-.43.51-.95.77-1.55.77s-1.1-.25-1.51-.74c-.42-.49-.62-1.25-.62-2.28s.22-1.81.67-2.35M305.13,42.4v-3.9c.23.29.53.53.89.72.36.19.76.29,1.22.29.62,0,1.21-.18,1.77-.52.56-.35.99-.85,1.28-1.51.29-.65.44-1.39.44-2.21,0-.76-.13-1.46-.4-2.11-.27-.64-.66-1.14-1.18-1.49-.52-.35-1.12-.53-1.81-.53-.52,0-.97.1-1.33.3-.37.2-.69.51-.99.92v-1.04h-1.24v11.07h1.36ZM296.56,38.87c.54.43,1.34.65,2.38.65.63,0,1.19-.11,1.69-.33.5-.22.88-.53,1.14-.93.26-.4.39-.83.39-1.28s-.11-.85-.32-1.16c-.22-.31-.51-.55-.89-.71-.38-.16-1.05-.37-2.01-.63-.66-.18-1.06-.3-1.2-.35-.24-.1-.41-.22-.52-.36-.11-.14-.17-.3-.17-.48,0-.28.13-.52.4-.72s.71-.31,1.33-.31c.53,0,.94.12,1.22.35.29.23.46.55.52.96l1.33-.18c-.09-.52-.24-.93-.47-1.24-.23-.31-.58-.55-1.05-.73-.47-.18-1.03-.27-1.65-.27-.42,0-.81.05-1.17.16-.36.11-.65.24-.86.39-.28.2-.5.45-.67.76-.16.3-.25.64-.25.99,0,.39.1.75.3,1.07.2.32.49.58.87.76.39.18,1.07.4,2.07.65.74.18,1.2.34,1.39.46.27.18.4.42.4.72,0,.34-.15.64-.45.89-.3.25-.76.38-1.39.38s-1.1-.14-1.44-.43c-.34-.29-.55-.7-.63-1.23l-1.34.21c.15.85.5,1.49,1.04,1.92M289.21,32.89c.42-.42.95-.62,1.57-.62.69,0,1.25.26,1.68.78.28.34.45.84.51,1.51h-4.47c.04-.7.28-1.26.7-1.67M292.12,38.01c-.35.26-.78.39-1.27.39-.67,0-1.22-.23-1.67-.7-.45-.47-.7-1.14-.75-2.02h5.97c0-.16,0-.28,0-.36,0-1.32-.34-2.35-1.02-3.07-.68-.73-1.55-1.09-2.62-1.09s-2,.37-2.7,1.11c-.69.74-1.04,1.79-1.04,3.13s.34,2.31,1.03,3.03c.69.72,1.61,1.08,2.78,1.08.93,0,1.69-.23,2.29-.68.6-.45,1.01-1.09,1.23-1.91l-1.4-.17c-.21.57-.49.99-.84,1.25M275.97,39.33v-4.37c0-1.02.21-1.72.63-2.09.42-.37.92-.55,1.5-.55.36,0,.68.08.95.25.27.16.46.38.56.65.11.27.16.69.16,1.24v4.87h1.36v-4.92c0-.63-.02-1.07-.08-1.32-.08-.39-.22-.72-.42-1-.2-.28-.5-.51-.91-.68-.4-.17-.85-.26-1.33-.26-1.11,0-1.96.44-2.55,1.32v-1.14h-1.22v8h1.36ZM267.76,32.89c.42-.42.95-.62,1.57-.62.69,0,1.25.26,1.68.78.28.34.45.84.51,1.51h-4.47c.05-.7.28-1.26.71-1.67M270.67,38.01c-.35.26-.78.39-1.27.39-.67,0-1.23-.23-1.67-.7-.45-.47-.7-1.14-.75-2.02h5.97c0-.16,0-.28,0-.36,0-1.32-.34-2.35-1.02-3.07-.68-.73-1.55-1.09-2.62-1.09s-2,.37-2.7,1.11c-.69.74-1.04,1.79-1.04,3.13s.34,2.31,1.03,3.03c.69.72,1.61,1.08,2.78,1.08.93,0,1.69-.23,2.29-.68.6-.45,1.01-1.09,1.23-1.91l-1.4-.17c-.21.57-.48.99-.84,1.25"></path><path class="cls-1" d="M477.85,19.68c0,.6-.07,1.05-.22,1.36-.19.4-.49.71-.9.94-.41.23-.87.34-1.39.34s-.93-.12-1.2-.36c-.27-.24-.41-.54-.41-.9,0-.24.06-.45.19-.65.13-.19.3-.34.54-.44.23-.1.63-.19,1.18-.27.99-.14,1.72-.31,2.21-.51v.5ZM478.24,23.19h1.42c-.17-.31-.28-.63-.34-.96-.06-.33-.09-1.13-.09-2.39v-1.81c0-.6-.02-1.02-.07-1.25-.08-.37-.22-.68-.42-.92-.2-.24-.52-.45-.94-.61-.43-.16-.98-.24-1.66-.24s-1.29.09-1.82.28c-.52.19-.92.46-1.2.81s-.48.81-.6,1.38l1.33.18c.15-.57.37-.96.67-1.19.3-.22.77-.34,1.41-.34.68,0,1.2.15,1.55.46.26.23.38.61.38,1.17,0,.05,0,.17,0,.35-.52.18-1.32.34-2.42.47-.54.07-.94.13-1.21.2-.36.1-.69.25-.98.45-.29.2-.52.46-.7.78-.18.32-.27.68-.27,1.07,0,.67.24,1.22.71,1.65.47.43,1.15.64,2.03.64.53,0,1.03-.09,1.5-.26.46-.18.95-.48,1.45-.9.04.38.13.71.27.99M469.57,21.77c-.36.33-.8.49-1.33.49-.66,0-1.2-.24-1.61-.73-.41-.49-.62-1.27-.62-2.34s.21-1.83.64-2.32c.43-.49.98-.73,1.67-.73.45,0,.84.14,1.16.41.32.27.54.67.67,1.21l1.32-.2c-.16-.81-.51-1.43-1.06-1.87-.55-.44-1.26-.66-2.13-.66-.69,0-1.32.16-1.91.48-.59.32-1.02.81-1.31,1.46-.29.65-.43,1.4-.43,2.27,0,1.34.33,2.36,1,3.08.66.72,1.54,1.07,2.64,1.07.87,0,1.61-.26,2.21-.78.6-.52.97-1.24,1.12-2.16l-1.33-.17c-.1.68-.32,1.18-.68,1.51M462.97,15.19h-1.36v8h1.36v-8ZM462.97,12.15h-1.36v1.56h1.36v-1.56ZM454.39,22.73c.55.43,1.34.65,2.38.65.63,0,1.19-.11,1.69-.33.5-.22.88-.53,1.14-.93.26-.4.4-.83.4-1.28s-.11-.85-.32-1.16-.51-.55-.89-.71-1.05-.37-2.01-.63c-.66-.18-1.06-.3-1.2-.35-.24-.1-.41-.22-.52-.36-.11-.14-.17-.3-.17-.47,0-.28.13-.52.4-.72.27-.21.71-.31,1.33-.31.53,0,.93.11,1.22.35.29.23.46.55.52.96l1.33-.18c-.09-.52-.24-.93-.47-1.24-.23-.31-.58-.55-1.05-.73-.47-.18-1.03-.27-1.65-.27-.42,0-.81.05-1.17.16-.36.11-.65.24-.86.39-.28.2-.5.45-.67.76-.16.3-.24.63-.24.99,0,.39.1.75.3,1.07.2.32.49.58.87.76.39.18,1.07.4,2.07.65.74.19,1.2.34,1.39.46.27.18.4.42.4.72,0,.34-.15.64-.45.89-.3.25-.76.38-1.39.38s-1.1-.14-1.44-.43c-.34-.29-.55-.7-.63-1.24l-1.34.21c.15.85.5,1.49,1.04,1.92M448.82,14.2l1.66-2.11h-1.78l-1,2.11h1.12ZM451.76,23.19v-8h-1.36v4.29c0,.68-.07,1.21-.22,1.56-.15.36-.4.64-.76.85-.36.21-.74.31-1.15.31s-.75-.1-1.02-.3c-.28-.2-.46-.48-.54-.84-.05-.25-.08-.72-.08-1.43v-4.44h-1.36v4.96c0,.58.03,1,.08,1.27.08.4.22.73.42,1.01.2.27.5.5.91.68.41.18.85.27,1.32.27,1.07,0,1.92-.45,2.54-1.36v1.17h1.21ZM433.81,23.19v-4.15c0-.73.07-1.29.22-1.67.15-.39.38-.68.71-.88.32-.2.68-.3,1.06-.3.5,0,.86.15,1.09.45.22.3.33.75.33,1.36v5.2h1.36v-4.65c0-.82.19-1.42.56-1.8.37-.37.84-.56,1.4-.56.31,0,.58.07.81.22.23.15.39.34.48.58.09.24.13.63.13,1.17v5.04h1.35v-5.49c0-.91-.21-1.59-.64-2.03-.43-.44-1.04-.66-1.83-.66-1.01,0-1.84.47-2.47,1.4-.16-.44-.42-.79-.8-1.03-.38-.25-.87-.37-1.46-.37-.53,0-1.01.12-1.42.36-.42.24-.75.55-1,.95v-1.12h-1.21v8h1.36ZM424.69,19.68c0,.6-.07,1.05-.22,1.36-.19.4-.49.71-.9.94-.41.23-.87.34-1.39.34s-.93-.12-1.2-.36-.41-.54-.41-.9c0-.24.06-.45.19-.65.12-.19.3-.34.53-.44.23-.1.62-.19,1.18-.27.98-.14,1.72-.31,2.21-.51v.5ZM425.08,23.19h1.42c-.17-.31-.29-.63-.34-.96-.06-.33-.09-1.13-.09-2.39v-1.81c0-.6-.02-1.02-.07-1.25-.08-.37-.22-.68-.42-.92-.2-.24-.51-.45-.94-.61-.43-.16-.98-.24-1.67-.24s-1.29.09-1.82.28c-.52.19-.92.46-1.2.81-.28.35-.48.81-.6,1.38l1.33.18c.14-.57.37-.96.67-1.19.3-.22.77-.34,1.41-.34.68,0,1.2.15,1.54.46.26.23.38.61.38,1.17,0,.05,0,.17,0,.35-.52.18-1.32.34-2.42.47-.54.07-.94.13-1.21.2-.36.1-.69.25-.98.45-.29.2-.52.46-.7.78-.18.32-.27.68-.27,1.07,0,.67.24,1.22.71,1.65.47.43,1.15.64,2.03.64.53,0,1.03-.09,1.5-.26.46-.18.95-.48,1.45-.9.04.38.13.71.27.99M417.48,12.15h-1.36v11.05h1.36v-11.05ZM405.02,16.75c.42-.42.95-.62,1.57-.62.69,0,1.25.26,1.68.78.28.34.45.84.51,1.52h-4.47c.04-.7.28-1.26.7-1.67M407.93,21.87c-.35.26-.78.39-1.27.39-.67,0-1.22-.23-1.67-.7-.45-.47-.7-1.14-.75-2.02h5.97c0-.16,0-.28,0-.36,0-1.32-.34-2.35-1.02-3.07-.68-.73-1.55-1.09-2.62-1.09s-2,.37-2.7,1.11c-.69.74-1.04,1.79-1.04,3.13s.34,2.31,1.03,3.03c.69.72,1.61,1.08,2.78,1.08.93,0,1.69-.23,2.29-.68.6-.45,1.01-1.09,1.23-1.91l-1.4-.17c-.21.57-.49.99-.84,1.25M396.22,16.87c.4-.49.91-.74,1.51-.74s1.14.26,1.56.77c.42.51.63,1.32.63,2.41,0,.99-.21,1.73-.62,2.22-.41.48-.92.73-1.51.73s-1.1-.25-1.53-.76c-.43-.51-.65-1.27-.65-2.3s.2-1.84.61-2.33M401.15,23.19v-11.05h-1.35v3.96c-.24-.33-.54-.59-.92-.8-.38-.2-.81-.3-1.29-.3-.66,0-1.25.17-1.79.52-.53.35-.93.85-1.2,1.5-.27.65-.4,1.38-.4,2.17s.15,1.54.44,2.17c.29.63.71,1.12,1.24,1.47.54.35,1.12.53,1.76.53.99,0,1.73-.4,2.24-1.19v1.01h1.26ZM386.94,19.68c0,.6-.07,1.05-.22,1.36-.19.4-.49.71-.9.94-.41.23-.87.34-1.39.34s-.93-.12-1.2-.36-.41-.54-.41-.9c0-.24.06-.45.19-.65.13-.19.3-.34.54-.44.23-.1.62-.19,1.18-.27.98-.14,1.72-.31,2.21-.51v.5ZM387.33,23.19h1.42c-.17-.31-.28-.63-.34-.96-.06-.33-.09-1.13-.09-2.39v-1.81c0-.6-.02-1.02-.07-1.25-.08-.37-.22-.68-.42-.92-.2-.24-.51-.45-.94-.61-.43-.16-.98-.24-1.66-.24s-1.29.09-1.82.28c-.52.19-.92.46-1.2.81s-.48.81-.6,1.38l1.33.18c.15-.57.37-.96.67-1.19.3-.22.77-.34,1.41-.34.68,0,1.2.15,1.54.46.26.23.38.61.38,1.17,0,.05,0,.17,0,.35-.52.18-1.32.34-2.42.47-.54.07-.94.13-1.21.2-.36.1-.69.25-.98.45-.29.2-.52.46-.7.78-.18.32-.27.68-.27,1.07,0,.67.24,1.22.71,1.65.47.43,1.15.64,2.03.64.53,0,1.03-.09,1.5-.26.46-.18.95-.48,1.45-.9.04.38.13.71.27.99M379.08,14.2l1.66-2.11h-1.78l-1,2.11h1.12ZM379.38,15.19h-1.36v8h1.36v-8ZM370.47,16.87c.42-.49.93-.74,1.54-.74s1.14.25,1.57.75c.43.5.65,1.24.65,2.21s-.21,1.78-.63,2.26c-.42.48-.94.72-1.57.72s-1.15-.24-1.57-.72c-.42-.48-.62-1.25-.62-2.3,0-.96.21-1.69.63-2.18M369.57,25.8c.59.43,1.36.64,2.31.64.8,0,1.48-.15,2.03-.45.55-.3.95-.71,1.21-1.23.25-.52.38-1.4.38-2.65v-6.92h-1.25v.96c-.61-.76-1.39-1.14-2.34-1.14-.71,0-1.32.17-1.85.53-.53.35-.93.85-1.2,1.5-.28.65-.41,1.35-.41,2.11,0,1.11.3,2.06.9,2.86.6.79,1.45,1.19,2.55,1.19.88,0,1.62-.35,2.21-1.05,0,.88-.03,1.46-.1,1.74-.12.45-.35.8-.69,1.05-.34.25-.83.38-1.45.38-.58,0-1.04-.13-1.38-.38-.25-.19-.4-.48-.46-.89l-1.32-.2c-.02.86.26,1.51.85,1.94M361.95,16.9c.45-.51,1.01-.76,1.69-.76s1.23.26,1.68.77c.45.51.67,1.26.67,2.25,0,1.05-.22,1.83-.67,2.34-.45.51-1.01.77-1.68.77s-1.24-.26-1.69-.76c-.45-.51-.67-1.28-.67-2.3s.22-1.79.67-2.3M360.92,22.3c.69.72,1.6,1.08,2.72,1.08.7,0,1.34-.16,1.93-.49.59-.33,1.04-.79,1.35-1.38s.46-1.4.46-2.43c0-1.27-.35-2.27-1.05-2.99-.7-.72-1.6-1.08-2.7-1.08-.99,0-1.83.3-2.52.89-.82.71-1.24,1.81-1.24,3.29,0,1.35.35,2.39,1.04,3.1M358.28,12.15h-1.36v11.05h1.36v-11.05ZM349.94,16.9c.45-.51,1.01-.76,1.69-.76s1.23.26,1.68.77c.45.51.67,1.26.67,2.25,0,1.05-.22,1.83-.67,2.34-.45.51-1.01.77-1.68.77s-1.24-.26-1.69-.76c-.45-.51-.67-1.28-.67-2.3s.22-1.79.67-2.3M348.91,22.3c.69.72,1.6,1.08,2.72,1.08.7,0,1.34-.16,1.93-.49.59-.33,1.04-.79,1.35-1.38.31-.59.46-1.4.46-2.43,0-1.27-.35-2.27-1.05-2.99-.7-.72-1.6-1.08-2.7-1.08-.99,0-1.83.3-2.52.89-.82.71-1.24,1.81-1.24,3.29,0,1.35.35,2.39,1.04,3.1M346.45,22.03c-.2,0-.36-.03-.46-.1s-.19-.15-.23-.26c-.05-.11-.07-.36-.07-.75v-4.68h1.36v-1.05h-1.36v-2.8l-1.35.81v1.98h-.99v1.05h.99v4.6c0,.81.06,1.35.17,1.6.11.25.3.46.57.61.27.16.65.23,1.15.23.3,0,.64-.04,1.02-.12l-.2-1.2c-.25.04-.44.05-.6.05M336.86,23.19v-4.37c0-1.02.21-1.72.63-2.09.42-.37.92-.55,1.5-.55.36,0,.68.08.95.24.27.16.46.38.56.65.1.27.16.69.16,1.24v4.87h1.36v-4.92c0-.63-.02-1.07-.07-1.32-.08-.39-.22-.72-.42-1-.2-.28-.5-.51-.91-.68-.4-.17-.85-.26-1.33-.26-1.11,0-1.96.44-2.55,1.32v-1.14h-1.22v8h1.36ZM328.48,16.9c.45-.51,1.01-.76,1.69-.76s1.23.26,1.68.77c.45.51.67,1.26.67,2.25,0,1.05-.22,1.83-.67,2.34-.45.51-1.01.77-1.68.77s-1.24-.26-1.69-.76c-.45-.51-.67-1.28-.67-2.3s.22-1.79.67-2.3M327.46,22.3c.69.72,1.6,1.08,2.72,1.08.7,0,1.34-.16,1.93-.49.59-.33,1.04-.79,1.35-1.38.31-.59.46-1.4.46-2.43,0-1.27-.35-2.27-1.05-2.99s-1.6-1.08-2.7-1.08c-.99,0-1.83.3-2.52.89-.82.71-1.24,1.81-1.24,3.29,0,1.35.35,2.39,1.04,3.1M315.74,26.44c.43,0,.8-.1,1.12-.31.31-.21.59-.54.83-.98.18-.33.44-.94.76-1.82l3.04-8.14h-1.36l-1.71,4.66c-.22.59-.4,1.2-.56,1.82-.17-.65-.36-1.27-.58-1.85l-1.67-4.63h-1.46l3.04,8.02c-.06.15-.1.26-.12.33-.19.54-.33.87-.41,1.01-.12.18-.26.32-.44.42-.18.1-.42.15-.72.15-.22,0-.48-.04-.78-.12l.15,1.27c.32.11.61.17.87.17M303.61,16.9c.45-.51,1.01-.76,1.69-.76s1.23.26,1.68.77c.45.51.67,1.26.67,2.25,0,1.05-.22,1.83-.67,2.34-.45.51-1.01.77-1.68.77s-1.24-.26-1.69-.76c-.45-.51-.67-1.28-.67-2.3s.22-1.79.67-2.3M302.58,22.3c.69.72,1.6,1.08,2.72,1.08.7,0,1.34-.16,1.93-.49.59-.33,1.04-.79,1.35-1.38.31-.59.46-1.4.46-2.43,0-1.27-.35-2.27-1.05-2.99-.7-.72-1.6-1.08-2.7-1.08-.99,0-1.83.3-2.52.89-.82.71-1.24,1.81-1.24,3.29,0,1.35.35,2.39,1.04,3.1M298.88,21.77c-.36.33-.8.49-1.33.49-.66,0-1.2-.24-1.61-.73-.41-.49-.62-1.27-.62-2.34s.21-1.83.64-2.32c.43-.49.98-.73,1.67-.73.45,0,.84.14,1.16.41.32.27.54.67.67,1.21l1.32-.2c-.15-.81-.51-1.43-1.06-1.87-.55-.44-1.26-.66-2.13-.66-.69,0-1.32.16-1.91.48-.58.32-1.02.81-1.31,1.46-.29.65-.43,1.4-.43,2.27,0,1.34.33,2.36,1,3.08.67.72,1.55,1.07,2.64,1.07.87,0,1.61-.26,2.21-.78.6-.52.97-1.24,1.12-2.16l-1.33-.17c-.1.68-.32,1.18-.68,1.51M292.27,15.19h-1.36v8h1.36v-8ZM292.27,12.15h-1.36v1.56h1.36v-1.56ZM283.93,23.19l2.1-3.16.44.67,1.64,2.49h1.66l-2.98-4.23,2.76-3.77h-1.62l-1.35,1.89c-.19.26-.39.55-.61.88-.14-.24-.33-.54-.56-.9l-1.23-1.88h-1.7l2.71,3.84-2.92,4.16h1.64ZM278.22,14.2l1.66-2.11h-1.78l-1,2.11h1.12ZM276.34,16.75c.42-.42.95-.62,1.57-.62.69,0,1.25.26,1.68.78.28.34.45.84.51,1.52h-4.47c.04-.7.28-1.26.7-1.67M279.25,21.87c-.35.26-.78.39-1.27.39-.67,0-1.23-.23-1.67-.7-.45-.47-.69-1.14-.74-2.02h5.97c0-.16,0-.28,0-.36,0-1.32-.34-2.35-1.02-3.07s-1.55-1.09-2.62-1.09-2,.37-2.7,1.11c-.69.74-1.04,1.79-1.04,3.13s.34,2.31,1.03,3.03c.68.72,1.61,1.08,2.78,1.08.93,0,1.69-.23,2.29-.68s1.01-1.09,1.23-1.91l-1.4-.17c-.21.57-.49.99-.84,1.25M273.05,23.19v-1.3h-5.44v-9.74h-1.46v11.05h6.9Z"></path></g></g></svg>